<svg width="38" height="53" viewBox="0 0 38 53" fill="none" xmlns="http://www.w3.org/2000/svg">
<path d="M0 53C0 43.7 8.5 36 19 36C29.4 36 38 43.7 38 53" fill="#316CFF"/>
<path d="M19 45C22.3137 45 25 42.3137 25 39C25 35.6863 22.3137 33 19 33C15.6863 33 13 35.6863 13 39C13 42.3137 15.6863 45 19 45Z" fill="white"/>
<path d="M23.0999 34.2998V38.8998C23.0999 41.1998 21.1999 42.9998 18.9999 42.9998C17.8999 42.9998 16.7999 42.4998 16.0999 41.7998C15.3999 40.9998 14.8999 39.9998 14.8999 38.8998V34.2998H23.0999Z" fill="#F7BE8F"/>
<path d="M23.3 37.3C21.9 37.8 20.5 38 19 38C17.5 38 16.1 37.8 14.7 37.3L13 36.5C9.8 34.7 7.6 31.7 7.1 28.3C7 27.7 7 27.2 7 26.7C7 25.7 7 23.6 7 21.8C7 20.1 7 12 7 12H31C31 12 31 20.1 31 21.8C31 23.6 31 25.6 31 26.7C31 27.2 31 27.8 30.9 28.3C30.7 29.8 30.2 31.1 29.4 32.4C28.4 34.1 26.9 35.5 25 36.5C24.4 36.8 23.9 37 23.3 37.3Z" fill="#FAD3A1"/>
<path d="M13.5 21C14.3 21 15 21.7 15 22.5C15 23.3 14.3 24 13.5 24C12.7 24 12 23.3 12 22.5C12 21.7 12.7 21 13.5 21Z" fill="#262647"/>
<path d="M23 22.5C23 21.7 23.7 21 24.5 21C25.3 21 26 21.7 26 22.5C26 23.3 25.3 24 24.5 24C23.7 24 23 23.3 23 22.5Z" fill="#262647"/>
<path d="M20 28C20 28.6 19.6 29 19 29C18.4 29 18 28.6 18 28H20Z" fill="#F7BE8F"/>
<path d="M19.0001 33.4998C17.4001 33.4998 15.9001 32.5998 15.1001 31.2998C15.0001 30.9998 15.0001 30.6998 15.3001 30.5998C15.5001 30.4998 15.8001 30.4998 16.0001 30.7998C16.6001 31.8998 17.8001 32.5998 19.0001 32.5998C20.2001 32.5998 21.4001 31.8998 22.0001 30.7998C22.1001 30.5998 22.4001 30.4998 22.7001 30.5998C22.9001 30.6998 23.0001 30.9998 22.9001 31.2998C22.1001 32.5998 20.6001 33.4998 19.0001 33.4998Z" fill="#F4B28E"/>
<path d="M33 15V22H31V16.6L25.6 12.4C24.1 16.4 19.7 19.2 15.3 19.2C12.3 19.2 8.9 17.9 7 15.8V16.7V22H5V13.5C5 10.4 6 7.90001 7.7 6.00001C10.3 3.00001 14.2 0.900007 18 1.00001C21.1 1.10001 23.4 2.10001 27 1.00001C27.3 1.50001 27.5 2.20001 27.3 3.20001C27.2 4.00001 27.1 4.20001 27 4.70001C30.5 7.30001 33 10.2 33 15Z" fill="#262647"/>
<path d="M7 26C5.3 26 4 24.7 4 23C4 22.2 4.3 21.4 4.9 20.9C5.4 20.4 6.2 20 7 20V26Z" fill="#F7BE8F"/>
<path d="M31 26C32.7 26 34 24.7 34 23C34 22.2 33.7 21.4 33.1 20.9C32.6 20.3 31.8 20 31 20V26Z" fill="#F7BE8F"/>
</svg>
